<svg version="1.2" xmlns="http://www.w3.org/2000/svg" viewBox="0 0 1289 813" width="1289" height="813">
	<title>svc-bg-svg</title>
	<style>
		.s0 { fill: #f0b6c2 } 
		.s1 { fill: #fbdb8e } 
		.s2 { fill: #2071e4 } 
		.s3 { fill: #f46464 } 
	</style>
	<g id="bg" style="opacity: .2">
		<path id="Path 78" class="s0" d="m124.8 104.8c-15.2 12.8-32 23.9-49.8 32.9-26.8 13.6-59.3 22.3-86.5 9.4-19.3-9.1-32.7-27.8-40-47.8-5-13.5-7.5-28.9-1.6-42.1 12.4-27.7 53.6-31.1 68.7-57.5l9.6-8.9c5.9-15.5 12.9-31.2 24.5-43 11.7-11.9 29-19.5 45.1-15.5 13.5 3.3 23.9 13.9 33.5 24 17.9 18.6 36.6 39.2 39.8 64.8 4.2 32.5-18.2 62.6-43.3 83.7z"/>
		<path id="Path 78 copy 2" class="s0" d="m417.3 758.6c9.7-21.8 21.9-42.4 36.3-61.3 21.7-28.6 52-54.9 87.8-55.3 25.5-0.3 49.5 12.8 67.9 30.4 12.4 11.9 23.1 27.2 23.7 44.3 1.2 36.2-41.3 61.4-43.7 97.5l-5.6 14.6c1.7 19.8 2.4 40.2-3.9 59-6.2 18.8-20.9 36-40.3 40.1-16.2 3.5-32.8-2.4-48.4-8.2-28.9-10.7-59.7-23-76.5-48.7-21.4-32.8-13.2-76.7 2.7-112.4z"/>
		<path id="Path 78 copy 3" class="s0" d="m1238.2 186.3c-10.8-14.4-19.9-30-27.1-46.5-10.8-24.8-17-54.5-4.1-78.3 9.1-16.8 26.6-27.9 45-33.5 12.4-3.8 26.4-5.3 38 0.7 24.3 12.5 25.2 49.8 48.2 64.6l7.5 9.1c13.7 6.2 27.4 13.2 37.5 24.3 10.1 11 16.1 27 11.6 41.3-3.6 12-13.6 20.8-23.2 28.9-17.7 15.1-37.1 30.9-60.3 32.6-29.4 2-55.4-19.6-73.1-43.2z"/>
		<path id="Path 79" class="s1" d="m1169.8 285.5c-12.9 21.1-37.9 34.3-62.6 33.1-16.4-0.9-32-7.4-46.5-15.1-10.2-5.4-20.7-11.8-26.3-22-3.5-6.3-4.9-13.6-5.4-20.9-1-13.4 0.9-27.2 7-39.2 6-12 16.6-22 29.4-26l20.3-14.8c16.1-6.3 34.1 0.1 50.1 6.7 7.7 3.2 15.5 6.5 21.9 11.7 5.4 4.3 9.7 9.8 13.1 15.7 12.4 21.5 11.9 49.7-1 70.8zm-919.9-89.1c-0.3 6.4-2.5 13.2-7.7 16.9-3 2.2-6.7 3.1-10.3 4-14.4 3.7-29.2 7.4-43.9 5.2-5.5-0.9-11.2-2.8-14.6-7.2-1.6-2.1-2.5-4.6-3.2-7.2-4.4-16.9 3.7-36.2 18.8-44.9l17.9-5.8c10.9-1.6 22.5 1.9 30.7 9.3 8.2 7.5 12.9 18.7 12.3 29.7z"/>
		<path id="Path 79 copy" class="s1" d="m946.8 18.5c-16.1 26.4-47.3 42.8-78.1 41.3-20.5-1-39.9-9.2-58.1-18.7-12.8-6.8-25.8-14.9-32.8-27.5-4.4-7.9-6.1-17.1-6.8-26.1-1.2-16.7 1.1-34 8.7-49 7.6-15 20.7-27.5 36.8-32.4l25.2-18.5c20.2-7.9 42.7 0.1 62.7 8.4 9.6 4 19.3 8.1 27.4 14.5 6.6 5.4 12.1 12.2 16.3 19.7 15.4 26.8 14.9 62-1.3 88.3zm-1148.5-111.2c-0.4 8-3.2 16.4-9.8 21.1-3.7 2.7-8.3 3.9-12.7 5-18 4.6-36.5 9.2-54.9 6.5-6.8-1.1-13.9-3.4-18.2-9-2-2.6-3.1-5.8-4-9-5.5-21 4.6-45.2 23.5-56.1l22.3-7.2c13.7-2 28.1 2.4 38.4 11.7 10.2 9.3 16 23.2 15.4 37z"/>
		<path id="Path 81" class="s1" d="m246.5 806.7c-7.8 6.7-19.5 7.7-29.2 4.1-3.1-1.2-6.2-2.9-8.4-5.4-4.1-4.7-4.7-11.7-2.5-17.5 2.1-5.8 6.5-10.5 11.5-14.1 1.3-1 3.6-1.7 4.3-0.2l4.1-3.6c8.9-0.1 18.7 1.9 24.1 9 6.3 8.1 3.9 21-3.9 27.7z"/>
		<path id="Path 81 copy" class="s1" d="m1000.7 853.5c-23.1-2.2-42.9-19.7-52.1-40.9-3-7-5.1-14.5-4.5-22.1 1.2-13.8 11.7-25.7 24.4-31.4 12.7-5.6 27.2-5.7 40.9-3.3 3.6 0.6 8.3 3.2 6.9 6.6l12.4 1c13.9 14.4 26 33.3 23 53.1-3.4 23-28 39.1-51 37z"/>
		<path id="Path 81 copy 2" class="s1" d="m158.1 444.7c2.6 15.8-5.6 32.1-18.2 41.9-4.1 3.3-8.8 6-13.9 6.9-9.5 1.6-19.2-3.3-25.2-10.8-6-7.5-8.7-17.2-9.5-26.7-0.2-2.6 0.7-6.1 3.3-5.8l-1.6-8.4c7.2-11.8 17.7-23.3 31.5-24.8 15.9-1.7 31 11.9 33.6 27.7z"/>
		<path id="Path 81 copy 4" class="s1" d="m808 601.2c22.3 16.5 31.8 46.7 28.1 74.2-1.2 8.9-3.7 18-9 25.3-9.8 13.5-27.9 19.2-44.4 17.2-16.5-2.1-31.5-11-44.1-21.9-3.3-2.9-6.5-8.4-2.9-11.1l-12.1-8.6c-5.4-23.4-6.1-50.3 9.2-68.8 17.6-21.4 52.8-22.8 75.2-6.3z"/>
		<path id="Path 81 copy 3" class="s1" d="m545 533.7c-6.7 19.9-26.4 33.8-47.1 37.5-6.8 1.2-13.9 1.5-20.4-0.7-12-3.9-20.3-15.7-22.7-28.1-2.3-12.4 0.6-25.3 5.6-36.9 1.3-3.1 4.6-6.7 7.3-4.7l3.4-10.7c15.7-9.4 35-16.1 51.9-9.4 19.6 7.9 28.7 33 22 53z"/>
		<path id="Path 82" class="s2" d="m319.9 83q5.7-21.2 11.4-42.4c9.2 11.9 22.6 19.8 35.7 27.4-11.7 2.8-23.1 6.5-34.3 11.1-2.7 1.1-5.5 2.3-8.5 2.3"/>
		<path id="Path 82 copy 5" class="s2" d="m942.9 681.2q3-11.3 6-22.6c5 6.3 12.1 10.5 19.1 14.6-6.2 1.5-12.3 3.4-18.3 5.9-1.4 0.6-2.9 1.2-4.5 1.2"/>
		<path id="Path 82 copy 9" class="s2" d="m758.9 167.2q3-11.3 6-22.6c5 6.3 12.1 10.5 19.1 14.6-6.2 1.5-12.3 3.4-18.3 5.9-1.4 0.6-2.9 1.2-4.5 1.2"/>
		<path id="Path 82 copy" class="s2" d="m1193.3 666.4q2.9-21.3 5.8-42.6c10.4 10.5 24.4 16.5 38 22.3-11 4.1-21.7 9.1-31.9 14.9-2.5 1.5-5.1 3-7.9 3.3"/>
		<path id="Path 82 copy 2" class="s2" d="m1061.3 104.2q-11.4-20.7-22.8-41.3c16.1 2.3 32.3-1.6 48.1-5.4-6.9 10.8-13.1 22.3-18.2 34.1-1.3 2.9-2.6 5.9-4.9 8.1"/>
		<path id="Path 82 copy 7" class="s2" d="m746.3 837.2q-11.4-20.7-22.8-41.3c16.1 2.3 32.3-1.6 48.1-5.4-6.9 10.8-13.1 22.3-18.2 34.1-1.3 2.9-2.6 5.9-4.9 8.1"/>
		<path id="Path 84" class="s0" d="m834.6 210c14.3 5.4 28.3 11.7 41.7 19 5.2 2.9 10.7 6.3 13.2 11.8 1.4 3.3 1.5 6.9 1.7 10.5 0.3 9.5 0.4 19.7-5 27.5-8.3 11.9-25.6 12.9-39.8 9.8-9.3-2-18.7-5.5-25.3-12.4-8.5-9-10.9-22.7-7.8-34.7 3.1-11.9 11.1-22.2 20.7-30"/>
		<path id="Path 82 copy 4" class="s2" d="m682.8 431.1q-38.3-10-76.7-20c21.5-16.9 35.5-41.1 49.1-64.8 5.2 21 12 41.7 20.4 61.7 2.1 4.9 4.3 9.9 4.2 15.3"/>
		<path id="Path 82 copy 8" class="s2" d="m312.4 553.8q-20.4 7.3-40.7 14.6c4.4-14.3 3.3-29.5 2.2-44.4 8.8 7.9 18.2 15.1 28.1 21.5 2.5 1.6 5 3.2 6.6 5.6"/>
		<path id="Path 82 copy 3" class="s2" d="m-45.3 889q-25.3-90.9-50.7-181.8c60.4 23.9 127.3 23.8 192.2 23.4-37.1 35.9-71.4 74.7-102.5 115.9-7.6 10.2-15.4 20.7-26.4 27"/>
		<path id="Path 83 copy 2" class="s3" d="m450.9 322.1c-19.9 17.5-29.5 43.4-50.4 60.1-6.2 4.9-13.7-4.8-7.5-9.8 20.7-16.5 30.5-42.5 50.4-60.1 5.9-5.2 13.4 4.6 7.5 9.8zm204.2-133.2q2.9 22.1 4.3 44.3c0.5 7.8-11.6 9.6-12.2 1.7q-1.4-22.1-4.2-44.2c-1-7.9 11.1-9.6 12.1-1.8zm-423.9 196.5c13.7 23.8 21 50.8 29.4 76.7 2.5 7.5-8.8 12.3-11.3 4.8-8.5-25.9-15.7-53-29.4-76.7-3.9-6.9 7.4-11.6 11.3-4.8zm-96 257.6c30.3 9.5 59.1 25.9 87.8 39.4 7.2 3.4 2.6 14.8-4.6 11.4-28.7-13.5-57.5-29.9-87.8-39.4-7.6-2.4-2.9-13.8 4.6-11.4zm1014.8-232.6c2.1 22.7 6.2 45.1 12.5 67 2.2 7.5-9.1 12.4-11.3 4.7-6.6-22.9-11.2-46.1-13.4-69.9-0.8-7.9 11.4-9.6 12.2-1.8zm-500.7 520.8c17.7-12.1 36.4-22.6 56-31.4 7.2-3.2 12 8.1 4.8 11.3-18.7 8.4-36.4 18.3-53.3 29.8-6.5 4.4-14.1-5.3-7.5-9.7zm476.5-59.4c-10 14.9-19.2 30.2-27.5 46-3.7 7-15.1 2.4-11.4-4.6 8.8-16.8 18.5-33.1 29.1-48.9 4.4-6.5 14.2 1 9.8 7.5zm142.4-284.9q8.9 26.2 20.7 51.3c3.3 7.1-8 11.9-11.4 4.8q-11.7-25.1-20.6-51.3c-2.6-7.5 8.7-12.3 11.3-4.8zm-312.2-7.2q14.2 15.9 28.4 31.7c9.3 10.2 18.4 20.4 30.2 27.7 6.8 4.2-0.8 13.9-7.4 9.8-11.8-7.3-21.1-17.4-30.3-27.6-10.2-11.3-20.4-22.7-30.6-34-5.3-5.9 4.4-13.4 9.7-7.6zm97.3 470.9c27 0.1 53.8 2.1 80.5 6.1 7.8 1.2 6.4 13.4-1.4 12.3q-40.1-6.1-80.5-6.2c-8 0-6.4-12.2 1.4-12.2zm-152.9-661.8c-0.3 17.2 1 34.3 3.7 51.3 1.3 7.8-10.9 9.5-12.1 1.7-2.9-18-4.1-36.1-3.9-54.4 0.1-7.9 12.4-6.4 12.3 1.4z"/>
		<path id="Path 84 copy 2" class="s0" d="m519.2 91.7c21.9-14.6 44.6-27.7 67.7-39.2 9.1-4.5 19.1-8.9 28-7.1 5.4 1.1 9.7 4.3 14 7.4 11.2 8.3 23.1 17.7 26.1 32.3 4.5 22.3-13.5 46.9-32.7 63.4-12.6 10.8-26.9 20.4-42.1 23-19.6 3.4-38-6.1-48.3-21.4-10.3-15.3-13.3-35.8-11.6-56.1"/>
		<path id="Path 84 copy" class="s0" d="m1007.2 438.3c7.8-1.5 15.8-2.4 23.8-2.8 3.1-0.2 6.5-0.1 9.1 1.7 1.5 1.1 2.6 2.7 3.6 4.2 2.8 4.2 5.6 8.7 5.3 13.7-0.5 7.6-8 12.7-15.2 15.2-4.7 1.6-9.9 2.6-14.7 1.3-6.3-1.7-11.1-7.2-12.9-13.4-1.9-6.2-1.1-13 1.1-19.1"/>
		<path id="Path 84 copy 4" class="s0" d="m118.1 297.2c7.7-1.5 15.5-2.4 23.3-2.7 3.1-0.1 6.4-0.1 8.9 1.6 1.5 1.1 2.5 2.7 3.5 4.2 2.7 4.1 5.5 8.5 5.2 13.4-0.5 7.4-7.8 12.4-14.9 14.8-4.6 1.6-9.6 2.5-14.3 1.3-6.1-1.7-10.8-7.1-12.6-13.1-1.9-6.1-1.1-12.7 1.1-18.7"/>
		<path id="Path 84 copy 3" class="s0" d="m766.7 455.1c14.3-2.7 28.7-4.3 43.2-5 5.7-0.3 11.8-0.2 16.5 3.1 2.8 1.9 4.7 4.8 6.5 7.7 5 7.5 10.1 15.8 9.6 24.8-0.9 13.7-14.5 23-27.6 27.5-8.5 2.9-17.9 4.7-26.6 2.3-11.3-3-20-13-23.4-24.3-3.4-11.2-1.9-23.5 2-34.5"/>
		<path id="Path 84 copy 5" class="s0" d="m1178.8 751.5c14.3-2.6 28.7-4.3 43.2-5 5.7-0.2 11.9-0.2 16.5 3.1 2.8 1.9 4.7 4.9 6.6 7.7 4.9 7.5 10.1 15.8 9.5 24.8-0.9 13.7-14.5 23-27.5 27.5-8.6 2.9-17.9 4.7-26.7 2.4-11.3-3.1-20-13.1-23.4-24.3-3.3-11.3-1.9-23.6 2.1-34.6"/>
	</g>
</svg>