<svg version="1.2" xmlns="http://www.w3.org/2000/svg" viewBox="0 0 1289 813" width="1289" height="813">
	<title>svc-bg-svg</title>
	<style>
		.s0 { fill: #f0b6c2 } 
		.s1 { fill: #fbdb8e } 
		.s2 { fill: #2071e4 } 
		.s3 { fill: #f46464 } 
	</style>
	<g id="bg" style="opacity: .2">
		<path id="Path 78" class="s0" d="m109.8 102.8c-15.2 12.8-32 23.9-49.8 32.9-26.8 13.6-59.3 22.3-86.5 9.4-19.3-9.1-32.7-27.8-40-47.8-5-13.5-7.5-28.9-1.6-42.1 12.4-27.7 53.6-31.1 68.7-57.5l9.6-8.9c5.9-15.5 12.9-31.2 24.5-43 11.7-11.9 29-19.5 45.1-15.5 13.5 3.3 23.9 13.9 33.5 24 17.9 18.6 36.6 39.2 39.8 64.8 4.2 32.5-18.2 62.6-43.3 83.7z"/>
		<path id="Path 78 copy" class="s0" d="m817.4 498.5c-13.4 19.3-29 36.9-46.5 52.5-26.2 23.5-60.4 43.2-95.2 37-24.6-4.5-45.4-21.6-59.8-42-9.8-13.9-17.3-30.6-14.6-47.3 5.6-35.2 51.3-51.6 60.4-86l8.2-13.1c2-19.4 5.1-39.2 14.7-56.2 9.6-17.1 26.9-30.9 46.4-31.3 16.4-0.3 31.3 8.5 45.3 17 25.9 15.8 53.3 33.4 64.8 61.4 14.5 35.6-1.6 76.5-23.7 108z"/>
		<path id="Path 78 copy 2" class="s0" d="m355.3 812.6c9.7-21.8 21.9-42.4 36.3-61.3 21.7-28.6 52-54.9 87.8-55.3 25.5-0.3 49.5 12.8 67.9 30.4 12.4 11.9 23.1 27.2 23.7 44.3 1.2 36.2-41.3 61.4-43.7 97.5l-5.6 14.6c1.7 19.8 2.4 40.2-3.9 59-6.2 18.8-20.9 36-40.3 40.1-16.2 3.5-32.8-2.4-48.4-8.2-28.9-10.7-59.7-23-76.5-48.7-21.4-32.8-13.2-76.7 2.7-112.4z"/>
		<path id="Path 78 copy 3" class="s0" d="m1238.2 186.3c-10.8-14.4-19.9-30-27.1-46.5-10.8-24.8-17-54.5-4.1-78.3 9.1-16.8 26.6-27.9 45-33.5 12.4-3.8 26.4-5.3 38 0.7 24.3 12.5 25.2 49.8 48.2 64.6l7.5 9.1c13.7 6.2 27.4 13.2 37.5 24.3 10.1 11 16.1 27 11.6 41.3-3.6 12-13.6 20.8-23.2 28.9-17.7 15.1-37.1 30.9-60.3 32.6-29.4 2-55.4-19.6-73.1-43.2z"/>
		<path id="Path 79" class="s1" d="m1262.8 496.5c-16.1 26.4-47.3 42.8-78.1 41.3-20.5-1-39.9-9.2-58.1-18.7-12.8-6.8-25.8-14.9-32.8-27.5-4.4-7.9-6.1-17.1-6.8-26.1-1.2-16.7 1.1-34 8.7-49 7.6-15 20.7-27.5 36.8-32.4l25.2-18.5c20.2-7.9 42.7 0.1 62.7 8.4 9.6 4 19.3 8.1 27.4 14.5 6.6 5.4 12.1 12.2 16.3 19.7 15.4 26.8 14.9 62-1.3 88.3zm-1148.5-111.2c-0.4 8-3.2 16.4-9.8 21.1-3.7 2.7-8.3 3.9-12.7 5-18 4.6-36.5 9.2-54.9 6.5-6.8-1.1-13.9-3.4-18.2-9-2-2.6-3.1-5.8-4-9-5.5-21 4.6-45.2 23.5-56.1l22.3-7.2c13.7-2 28.1 2.4 38.4 11.7 10.2 9.3 16 23.2 15.4 37z"/>
		<path id="Path 79 copy" class="s1" d="m890.8 8.5c-16.1 26.4-47.3 42.8-78.1 41.3-20.5-1-39.9-9.2-58.1-18.7-12.8-6.8-25.8-14.9-32.8-27.5-4.4-7.9-6.1-17.1-6.8-26.1-1.2-16.7 1.1-34 8.7-49 7.6-15 20.7-27.5 36.8-32.4l25.2-18.5c20.2-7.9 42.7 0.1 62.7 8.4 9.6 4 19.3 8.1 27.4 14.5 6.6 5.4 12.1 12.2 16.3 19.7 15.4 26.8 14.9 62-1.3 88.3zm-1148.5-111.2c-0.4 8-3.2 16.4-9.8 21.1-3.7 2.7-8.3 3.9-12.7 5-18 4.6-36.5 9.2-54.9 6.5-6.8-1.1-13.9-3.4-18.2-9-2-2.6-3.1-5.8-4-9-5.5-21 4.6-45.2 23.5-56.1l22.3-7.2c13.7-2 28.1 2.4 38.4 11.7 10.2 9.3 16 23.2 15.4 37z"/>
		<path id="Path 81" class="s1" d="m246.5 806.7c-7.8 6.7-19.5 7.7-29.2 4.1-3.1-1.2-6.2-2.9-8.4-5.4-4.1-4.7-4.7-11.7-2.5-17.5 2.1-5.8 6.5-10.5 11.5-14.1 1.3-1 3.6-1.7 4.3-0.2l4.1-3.6c8.9-0.1 18.7 1.9 24.1 9 6.3 8.1 3.9 21-3.9 27.7z"/>
		<path id="Path 81 copy" class="s1" d="m1000.7 853.5c-23.1-2.2-42.9-19.7-52.1-40.9-3-7-5.1-14.5-4.5-22.1 1.2-13.8 11.7-25.7 24.4-31.4 12.7-5.6 27.2-5.7 40.9-3.3 3.6 0.6 8.3 3.2 6.9 6.6l12.4 1c13.9 14.4 26 33.3 23 53.1-3.4 23-28 39.1-51 37z"/>
		<path id="Path 81 copy 2" class="s1" d="m406.1 220.7c2.6 15.8-5.6 32.1-18.2 41.9-4.1 3.3-8.8 6-13.9 6.9-9.5 1.6-19.2-3.3-25.2-10.8-6-7.5-8.7-17.2-9.5-26.7-0.2-2.6 0.7-6.1 3.3-5.8l-1.6-8.4c7.2-11.8 17.7-23.3 31.5-24.8 15.9-1.7 31 11.9 33.6 27.7z"/>
		<path id="Path 81 copy 4" class="s1" d="m973.2 569.1c4.5 27.4-9.7 55.6-31.6 72.8-7.1 5.6-15.2 10.3-24.1 11.8-16.4 2.8-33.4-5.6-43.8-18.6-10.4-13-15-29.8-16.4-46.4-0.3-4.4 1.3-10.6 5.7-10l-2.7-14.6c12.4-20.5 30.7-40.4 54.6-43 27.5-3 53.7 20.6 58.3 48z"/>
		<path id="Path 81 copy 3" class="s1" d="m460.3 466.9c-10.6 31.7-41.8 53.8-74.7 59.6-10.8 2-22.1 2.4-32.5-1.1-19-6.2-32.3-24.8-36-44.6-3.7-19.7 1-40.2 8.9-58.6 2-4.9 7.3-10.6 11.6-7.5l5.4-17c24.9-14.8 55.5-25.6 82.4-14.8 31.1 12.4 45.6 52.3 34.9 84z"/>
		<path id="Path 82" class="s2" d="m239.9 84q5.7-21.2 11.4-42.4c9.2 11.9 22.6 19.8 35.7 27.4-11.7 2.8-23.1 6.5-34.3 11.1-2.7 1.1-5.5 2.3-8.5 2.3"/>
		<path id="Path 82 copy" class="s2" d="m1193.3 666.4q2.9-21.3 5.8-42.6c10.4 10.5 24.4 16.5 38 22.3-11 4.1-21.7 9.1-31.9 14.9-2.5 1.5-5.1 3-7.9 3.3"/>
		<path id="Path 82 copy 2" class="s2" d="m1061.3 104.2q-11.4-20.7-22.8-41.3c16.1 2.3 32.3-1.6 48.1-5.4-6.9 10.8-13.1 22.3-18.2 34.1-1.3 2.9-2.6 5.9-4.9 8.1"/>
		<path id="Path 82 copy 7" class="s2" d="m746.3 837.2q-11.4-20.7-22.8-41.3c16.1 2.3 32.3-1.6 48.1-5.4-6.9 10.8-13.1 22.3-18.2 34.1-1.3 2.9-2.6 5.9-4.9 8.1"/>
		<path id="Path 84" class="s0" d="m963.6 201c14.3 5.4 28.3 11.7 41.7 19 5.2 2.9 10.7 6.3 13.2 11.8 1.4 3.3 1.5 6.9 1.7 10.5 0.3 9.5 0.4 19.7-5 27.5-8.3 11.9-25.6 12.9-39.8 9.8-9.3-2-18.7-5.5-25.3-12.4-8.5-9-10.9-22.7-7.8-34.7 3.1-11.9 11.1-22.2 20.7-30"/>
		<path id="Path 82 copy 4" class="s2" d="m593.8 346.1q-38.3-10-76.7-20c21.5-16.9 35.5-41.1 49.1-64.8 5.2 21 12 41.7 20.4 61.7 2.1 4.9 4.3 9.9 4.2 15.3"/>
		<path id="Path 82 copy 3" class="s2" d="m-45.3 889q-25.3-90.9-50.7-181.8c60.4 23.9 127.3 23.8 192.2 23.4-37.1 35.9-71.4 74.7-102.5 115.9-7.6 10.2-15.4 20.7-26.4 27"/>
		<path id="Path 83 copy 2" class="s3" d="m398.9 84.1c-19.9 17.5-29.5 43.4-50.4 60.1-6.2 4.9-13.7-4.8-7.5-9.8 20.7-16.5 30.5-42.5 50.4-60.1 5.9-5.2 13.4 4.6 7.5 9.8zm204.2-133.2q2.9 22.1 4.3 44.3c0.5 7.8-11.6 9.6-12.2 1.7q-1.4-22.1-4.2-44.2c-1-7.9 11.1-9.6 12.1-1.8zm-423.9 196.5c13.7 23.8 21 50.8 29.4 76.7 2.5 7.5-8.8 12.3-11.3 4.8-8.5-25.9-15.7-53-29.4-76.7-3.9-6.9 7.4-11.6 11.3-4.8zm-96 257.6c30.3 9.5 59.1 25.9 87.8 39.4 7.2 3.4 2.6 14.8-4.6 11.4-28.7-13.5-57.5-29.9-87.8-39.4-7.6-2.4-2.9-13.8 4.6-11.4zm1014.8-232.6c2.1 22.7 6.2 45.1 12.5 67 2.2 7.5-9.1 12.4-11.3 4.7-6.6-22.9-11.2-46.1-13.4-69.9-0.8-7.9 11.4-9.6 12.2-1.8zm-500.7 520.8c17.7-12.1 36.4-22.6 56-31.4 7.2-3.2 12 8.1 4.8 11.3-18.7 8.4-36.4 18.3-53.3 29.8-6.5 4.4-14.1-5.3-7.5-9.7zm476.5-59.4c-10 14.9-19.2 30.2-27.5 46-3.7 7-15.1 2.4-11.4-4.6 8.8-16.8 18.5-33.1 29.1-48.9 4.4-6.5 14.2 1 9.8 7.5zm142.4-284.9q8.9 26.2 20.7 51.3c3.3 7.1-8 11.9-11.4 4.8q-11.7-25.1-20.6-51.3c-2.6-7.5 8.7-12.3 11.3-4.8zm-312.2-7.2q14.2 15.9 28.4 31.7c9.3 10.2 18.4 20.4 30.2 27.7 6.8 4.2-0.8 13.9-7.4 9.8-11.8-7.3-21.1-17.4-30.3-27.6-10.2-11.3-20.4-22.7-30.6-34-5.3-5.9 4.4-13.4 9.7-7.6zm97.3 470.9c27 0.1 53.8 2.1 80.5 6.1 7.8 1.2 6.4 13.4-1.4 12.3q-40.1-6.1-80.5-6.2c-8 0-6.4-12.2 1.4-12.2zm-152.9-661.8c-0.3 17.2 1 34.3 3.7 51.3 1.3 7.8-10.9 9.5-12.1 1.7-2.9-18-4.1-36.1-3.9-54.4 0.1-7.9 12.4-6.4 12.3 1.4z"/>
		<path id="Path 83 copy 3" class="s3" d="m-204.5 773.5c-5.7 25.8 1.7 52.5-5.5 78.2-2.1 7.7-13.9 4.2-11.8-3.4 7.1-25.6-0.2-52.4 5.5-78.2 1.8-7.8 13.6-4.3 11.8 3.4zm87.3-227.6q15.2 16.2 29.4 33.3c5 6-3.8 14.6-8.8 8.5q-14.2-17.1-29.4-33.3c-5.4-5.7 3.4-14.3 8.8-8.5zm-228 407.8c25.1 11.2 46.8 28.8 68.9 44.9 6.4 4.6 0.1 15.1-6.4 10.5-22-16-43.7-33.7-68.8-44.9-7.2-3.2-0.8-13.7 6.3-10.5zm73.4 265c30.2-10.1 63.1-13.7 94.3-19.7 7.8-1.4 10.7 10.5 3 12-31.2 5.9-64.2 9.5-94.3 19.6-7.5 2.5-10.4-9.5-3-11.9zm685.2-783.9c15.1 17.1 31.5 32.9 49.5 46.8 6.2 4.8-0.1 15.4-6.4 10.6-18.8-14.7-36.1-30.9-51.9-48.8-5.2-5.9 3.6-14.5 8.8-8.6zm-99.8 715.5c7.3-20.2 16.3-39.7 27-58.3 3.9-6.8 14.5-0.5 10.5 6.4-10.2 17.7-18.7 36.1-25.7 55.4-2.6 7.4-14.5 4-11.8-3.5zm351-327.7c0.7 17.9 2.2 35.7 4.8 53.4 1.1 7.8-10.8 10.8-12 3-2.7-18.8-4.4-37.7-5.1-56.7-0.2-7.9 12.1-7.6 12.3 0.3zm-51.9-314.3q22.6 16 46.8 29.4c7 3.9 0.6 14.4-6.3 10.5q-24.2-13.4-46.8-29.4c-6.5-4.5-0.1-15.1 6.3-10.5zm-256.9 177.4q20.7 4.5 41.5 9c13.5 2.9 26.9 5.7 40.8 4.7 7.9-0.6 7.5 11.7-0.4 12.3-13.8 1-27.2-1.7-40.6-4.6-15-3.1-29.9-6.4-44.8-9.6-7.8-1.6-4.3-13.4 3.5-11.8zm355.1 324.2c21.8-15.8 44.8-29.9 68.7-42.3 7.1-3.6 13.1 7.1 6 10.8q-35.9 18.6-68.7 42.2c-6.5 4.7-12.4-6.1-6-10.7zm-512.2-446.1c9.9 14.1 20.9 27.1 33.1 39.3 5.6 5.6-3.2 14.1-8.8 8.6-12.9-13-24.6-26.9-35.1-41.9-4.5-6.5 6.3-12.4 10.8-6z"/>
		<path id="Path 84 copy 2" class="s0" d="m523.2 76.7c21.9-14.6 44.6-27.7 67.7-39.2 9.1-4.5 19.1-8.9 28-7.1 5.4 1.1 9.7 4.3 14 7.4 11.2 8.3 23.1 17.7 26.1 32.3 4.5 22.3-13.5 46.9-32.7 63.4-12.6 10.8-26.9 20.4-42.1 23-19.6 3.4-38-6.1-48.3-21.4-10.3-15.3-13.3-35.8-11.6-56.1"/>
		<path id="Path 84 copy" class="s0" d="m64.8 561.5c14.3-2.6 28.7-4.3 43.2-5 5.7-0.2 11.9-0.2 16.5 3.1 2.8 1.9 4.7 4.9 6.6 7.7 4.9 7.5 10.1 15.8 9.5 24.8-0.9 13.7-14.5 23-27.5 27.5-8.6 2.9-17.9 4.7-26.7 2.4-11.3-3.1-20-13.1-23.4-24.3-3.3-11.3-1.9-23.6 2.1-34.6"/>
		<path id="Path 84 copy 4" class="s0" d="m198.1 293.2c7.7-1.5 15.5-2.4 23.3-2.7 3.1-0.1 6.4-0.1 8.9 1.6 1.5 1.1 2.5 2.7 3.5 4.2 2.7 4.1 5.5 8.5 5.2 13.4-0.5 7.4-7.8 12.4-14.9 14.8-4.6 1.6-9.6 2.5-14.3 1.3-6.1-1.7-10.8-7.1-12.6-13.1-1.9-6.1-1.1-12.7 1.1-18.7"/>
		<path id="Path 84 copy 3" class="s0" d="m774.8 653.5c14.3-2.6 28.7-4.3 43.2-5 5.7-0.2 11.9-0.2 16.5 3.1 2.8 1.9 4.7 4.9 6.6 7.7 4.9 7.5 10.1 15.8 9.5 24.8-0.9 13.7-14.5 23-27.5 27.5-8.6 2.9-17.9 4.7-26.7 2.4-11.3-3.1-20-13.1-23.4-24.3-3.3-11.3-1.9-23.6 2.1-34.6"/>
		<path id="Path 84 copy 5" class="s0" d="m1178.8 751.5c14.3-2.6 28.7-4.3 43.2-5 5.7-0.2 11.9-0.2 16.5 3.1 2.8 1.9 4.7 4.9 6.6 7.7 4.9 7.5 10.1 15.8 9.5 24.8-0.9 13.7-14.5 23-27.5 27.5-8.6 2.9-17.9 4.7-26.7 2.4-11.3-3.1-20-13.1-23.4-24.3-3.3-11.3-1.9-23.6 2.1-34.6"/>
	</g>
</svg>